<svg width="258" height="290" viewBox="0 0 258 290" fill="none" xmlns="http://www.w3.org/2000/svg">
  <path
    d="M157.792 134.875L226 8.5C226 8.5 230.084 11.7498 230.292 12.3749C230.5 13 257 153.5 257.292 155.375C257.584 157.25 255.792 166.375 255.792 166.375L157.792 134.875Z"
    fill="url(#paint0_linear)" />
  <path
    d="M46.2919 288.875C42.2919 287.375 34.7919 283.375 31.2919 281.375C27.7919 279.375 26.7919 274.375 26.7919 274.375C26.7919 274.375 1.79187 142.375 0.291869 133.875C-1.20813 125.375 3.29187 117.875 8.79187 114.375C14.2919 110.875 205.792 0.874925 206.792 0.37498C207.792 -0.124966 211.292 -0.12502 212.292 0.37498C213.184 0.820918 222.826 6.83497 224.545 7.77555C224.663 7.7977 224.747 7.83037 224.792 7.87498C224.846 7.92904 224.754 7.88958 224.545 7.77555C223.346 7.54946 218.703 8.41959 217.792 8.87498C216.792 9.37498 27.2919 118.375 20.7919 122.375C14.2919 126.375 11.7919 135.375 13.2919 142.375C14.7919 149.375 38.2919 277.875 39.2919 281.375C40.2919 284.875 50.2919 290.375 46.2919 288.875Z"
    fill="white" />
  <path
    d="M112.792 161.375L43.7919 287.375C43.7919 287.375 49.5837 291.25 55.2919 287.875C61 284.5 251.584 173.25 252.292 172.375C253 171.5 255.792 166.375 255.792 166.375L157.292 134.875L138.792 169.375L112.792 161.375Z"
    fill="url(#paint1_linear)" />
  <path
    d="M112.792 161.375C112.792 161.375 45 288 43.7918 287.375C42.5837 286.75 40 283.5 39.2918 281.875C38.5837 280.25 14.5 148.5 13.2918 142.375C12.0837 136.25 13.7918 130.875 13.7918 130.875L112.792 161.375Z"
    fill="url(#paint2_linear)" />
  <path
    d="M138.792 169.375L13.7919 130.875C13.7919 130.875 17.0837 125.25 20.2919 122.875C23.5 120.5 214.208 10.6251 219 8.5C223.792 6.37488 226.292 8.87483 226.292 8.87483L138.792 169.375Z"
    fill="#59CAF4" />
  <defs>
    <linearGradient id="paint0_linear" x1="216.5" y1="103.5" x2="177.5" y2="87" gradientUnits="userSpaceOnUse">
      <stop stop-color="#52BDEB" />
      <stop offset="1" stop-color="#48A7D9" />
    </linearGradient>
    <linearGradient id="paint1_linear" x1="119" y1="126" x2="180.5" y2="211" gradientUnits="userSpaceOnUse">
      <stop stop-color="#2D73B9" />
      <stop offset="0.632629" stop-color="#429CD4" />
    </linearGradient>
    <linearGradient id="paint2_linear" x1="54" y1="209" x2="72.5" y2="131" gradientUnits="userSpaceOnUse">
      <stop stop-color="#52BCED" />
      <stop offset="0.786573" stop-color="#45A1D8" />
    </linearGradient>
  </defs>
</svg>